<?xml version="1.0" standalone="no"?>
<!DOCTYPE svg PUBLIC "-//W3C//DTD SVG 20010904//EN"
 "http://www.w3.org/TR/2001/REC-SVG-20010904/DTD/svg10.dtd">
<svg version="1.0" xmlns="http://www.w3.org/2000/svg"
 width="1065.000000pt" height="1280.000000pt" viewBox="0 0 1065.000000 1280.000000"
 preserveAspectRatio="xMidYMid meet">
<metadata>
Created by potrace 1.16, written by Peter Selinger 2001-2019
</metadata>
<g transform="translate(0.000000,1280.000000) scale(0.100000,-0.100000)"
fill="#000000" stroke="none">
<path d="M5656 10605 c-13 -14 -28 -25 -35 -25 -30 0 -101 -89 -101 -127 0 -7
-11 -30 -24 -51 -29 -46 -134 -102 -190 -102 -28 0 -45 -7 -66 -29 -16 -16
-32 -27 -35 -25 -3 2 -1 -1 3 -6 6 -7 18 -7 37 0 36 14 71 4 54 -16 -6 -7 -15
-12 -19 -9 -4 2 -31 -18 -60 -45 -30 -28 -58 -50 -62 -50 -5 0 -8 -8 -7 -17 5
-49 -2 -64 -31 -74 -16 -6 -30 -15 -30 -20 0 -5 -7 -9 -15 -9 -24 0 -18 -39 8
-49 16 -6 129 6 165 18 1 1 -2 9 -7 20 -8 14 -4 24 20 47 30 28 30 28 172 30
78 1 149 4 157 5 8 2 15 -3 15 -11 0 -15 -31 -25 -107 -35 -31 -4 -45 -10 -42
-18 5 -15 -16 -38 -80 -86 -25 -19 -43 -38 -40 -43 3 -4 21 -10 42 -14 20 -4
42 -10 47 -15 6 -4 28 -9 49 -11 47 -4 58 -24 22 -38 -29 -11 -33 -31 -10 -51
19 -16 107 -13 113 4 2 7 19 26 36 44 18 18 30 34 28 37 -3 2 18 13 46 23 28
10 51 21 51 25 0 5 16 8 36 8 25 0 48 9 75 31 54 43 70 86 68 181 -1 46 3 83
10 91 14 18 12 233 -2 262 -6 11 -21 28 -35 39 -13 11 -30 34 -38 51 -11 26
-21 34 -51 40 -21 4 -44 11 -50 17 -7 6 -13 7 -13 3 0 -4 -6 -3 -12 2 -7 6
-25 13 -41 17 -22 5 -32 1 -51 -19z"/>
<path d="M6089 10497 c-10 -14 -13 -29 -8 -42 4 -11 13 -35 19 -53 14 -36 104
-114 124 -106 17 7 24 -13 41 -110 12 -67 19 -85 49 -115 19 -20 36 -45 38
-56 4 -21 59 -54 94 -55 11 0 36 -7 54 -17 25 -12 57 -16 124 -15 128 2 136
20 26 58 -30 10 -59 24 -65 31 -5 6 -19 13 -29 15 -11 1 -21 9 -23 15 -7 20
47 35 103 28 39 -5 63 -1 103 14 62 25 116 27 125 6 3 -8 10 -15 16 -15 5 0
19 -9 30 -20 20 -20 67 -37 77 -27 3 4 -6 20 -21 37 -14 17 -26 38 -26 45 0
19 -98 104 -128 112 -14 3 -37 12 -51 19 -14 8 -34 14 -43 14 -10 0 -18 5 -18
11 0 8 14 10 39 6 34 -4 73 6 61 16 -21 17 -104 56 -143 66 -47 14 -62 35 -29
45 9 2 -3 4 -28 4 -76 0 -79 1 -86 27 -3 14 -10 25 -15 25 -6 0 -22 9 -38 21
-17 13 -39 19 -57 17 -25 -3 -29 -8 -32 -39 -3 -33 -8 -38 -45 -53 -24 -9 -50
-16 -59 -16 -24 0 -78 33 -78 47 0 17 -59 83 -74 83 -6 0 -18 -11 -27 -23z"/>
<path d="M2 10339 c3 -146 4 -154 23 -154 11 0 25 10 31 23 6 13 20 32 30 42
11 10 25 26 32 35 7 8 21 15 31 15 16 0 19 -13 25 -112 4 -62 10 -147 13 -188
4 -41 6 -241 6 -445 0 -213 3 -375 8 -381 6 -7 9 -16 8 -20 -1 -5 -1 -11 0
-14 1 -3 4 -25 6 -50 4 -43 6 -89 20 -415 9 -217 27 -419 38 -433 16 -20 73
-41 96 -35 11 3 44 -4 73 -15 57 -21 69 -22 698 -42 470 -15 716 -27 728 -34
11 -7 448 -18 863 -22 135 -1 263 -7 285 -13 21 -6 66 -10 99 -10 33 0 156 -5
273 -12 242 -13 268 -9 259 39 -5 28 13 85 32 96 6 4 15 -4 21 -18 7 -19 17
-26 35 -26 15 0 24 4 20 9 -3 5 -1 12 4 16 5 3 14 -1 18 -10 10 -18 104 -37
142 -29 14 3 37 7 50 10 20 4 22 9 17 35 -4 22 0 35 15 50 22 22 18 39 -10 39
-10 0 -24 7 -31 15 -7 8 -17 12 -23 8 -5 -3 -20 -8 -31 -10 -12 -2 -37 -6 -56
-9 -19 -3 -40 -12 -46 -20 -10 -12 -14 -10 -28 10 -9 14 -16 29 -16 34 0 5
-20 6 -46 2 -43 -7 -46 -5 -60 22 -21 41 -14 68 23 88 41 22 33 30 -28 30 -35
0 -51 -5 -57 -17 -11 -19 -44 -27 -53 -12 -3 6 -2 33 2 62 5 32 5 55 -1 61 -6
6 -10 33 -10 60 0 28 -7 109 -14 181 -12 112 -17 131 -36 147 -12 10 -35 18
-50 18 -15 0 -40 7 -56 15 -34 16 -386 35 -410 22 -25 -14 -115 24 -133 55
-23 39 -70 55 -194 63 -94 7 -112 11 -134 31 l-25 24 23 8 c13 5 142 12 286
15 l263 5 31 26 c33 28 76 34 111 15 16 -9 38 -7 93 6 96 22 103 27 88 62 -6
15 -17 44 -23 63 -27 77 -35 81 -117 55 -41 -13 -69 -31 -109 -71 -65 -66 -91
-71 -171 -33 -30 14 -47 18 -60 11 -27 -14 -501 -7 -538 7 -70 29 -84 74 -38
129 48 59 76 68 193 66 58 -2 120 -6 138 -9 18 -4 38 -3 45 2 6 6 33 16 60 24
26 7 47 17 47 20 0 4 10 9 23 12 26 4 17 8 -58 26 -27 7 -57 18 -65 26 -11 10
-36 12 -95 9 -121 -8 -345 9 -356 27 -10 16 -12 70 -3 94 4 8 26 29 50 46 25
17 52 38 62 49 9 10 37 25 62 33 59 20 55 37 -12 52 -42 8 -108 75 -118 118
-6 31 -4 42 11 60 11 12 28 36 39 54 10 18 31 40 45 49 22 15 32 15 68 5 23
-7 56 -27 74 -43 l32 -31 12 26 c18 39 66 51 173 43 259 -19 251 -19 284 -2
36 19 39 28 15 47 -13 11 -81 13 -367 11 -212 -1 -361 -7 -377 -13 -22 -9 -32
-6 -64 15 -21 14 -46 26 -57 26 -11 0 -27 4 -36 9 -36 18 -371 29 -687 21
l-130 -3 -33 -33 c-19 -19 -31 -37 -29 -41 3 -5 10 -102 17 -218 6 -115 16
-232 21 -259 6 -28 12 -78 14 -111 15 -203 23 -214 155 -216 45 0 80 -20 80
-45 0 -37 146 -98 182 -75 10 6 58 11 106 11 99 0 114 -8 127 -67 3 -18 12
-36 18 -40 7 -4 48 -8 92 -9 44 -1 92 -3 107 -3 14 -1 40 -12 56 -26 21 -18
42 -25 70 -25 22 0 44 -6 50 -12 5 -7 12 -45 14 -84 l5 -71 -32 -12 c-17 -6
-83 -11 -146 -11 -77 0 -121 -4 -132 -12 -15 -11 -18 -40 -22 -203 -3 -104 -7
-203 -9 -220 -1 -16 -4 -40 -4 -52 -3 -33 -23 -28 -62 12 -22 23 -54 42 -90
53 -30 9 -71 24 -90 34 -30 14 -36 14 -43 2 -14 -24 -30 -16 -23 11 5 18 2 27
-9 31 -8 4 -15 18 -15 32 0 15 -11 49 -25 77 -13 27 -27 66 -30 86 -3 21 -14
48 -25 61 -19 25 -21 25 -236 32 -152 4 -220 10 -225 18 -7 10 -10 283 -14
1063 0 88 -1 202 -3 253 l-2 93 -35 15 c-25 10 -85 15 -205 18 -97 2 -175 8
-182 14 -12 9 -55 20 -178 42 -25 5 -66 9 -92 9 -25 1 -75 8 -109 17 -69 18
-170 15 -177 -5 -3 -8 -9 -5 -19 8 -8 13 -25 21 -41 21 -15 0 -44 3 -65 6
l-38 6 3 -153z m2189 -178 c26 -27 41 -81 21 -81 -4 0 -29 -17 -54 -39 -37
-30 -61 -41 -109 -50 -81 -14 -99 -5 -99 52 1 59 19 86 81 118 73 38 122 38
160 0z m674 -1427 c34 -16 45 -37 45 -90 0 -33 -55 -116 -85 -128 -9 -3 -44
-3 -78 1 -114 12 -155 70 -106 153 36 61 67 80 132 80 33 0 74 -7 92 -16z
m-755 -330 c41 -13 50 -21 56 -47 5 -25 2 -34 -16 -49 -33 -26 -177 -22 -194
5 -9 16 -4 25 37 63 27 24 53 44 59 44 5 0 31 -7 58 -16z"/>
<path d="M9433 10243 c-8 -3 -13 -24 -13 -54 0 -43 3 -49 20 -49 11 0 37 7 58
16 20 9 66 22 102 28 36 6 65 16 65 21 0 17 -199 50 -232 38z"/>
<path d="M3272 10088 c-5 -7 -19 -32 -31 -55 -12 -24 -28 -43 -35 -43 -24 0
-46 12 -46 25 0 6 -9 20 -19 29 -43 39 -161 -25 -161 -89 0 -41 -24 -57 -98
-65 -37 -4 -78 -12 -92 -17 l-24 -10 21 -12 c36 -19 97 -13 144 14 33 18 59
25 102 25 32 0 74 7 94 15 19 8 59 15 87 15 84 0 127 11 135 33 13 34 -4 109
-29 129 -26 21 -34 22 -48 6z"/>
<path d="M8007 10038 c-8 -13 -24 -32 -35 -44 -11 -12 -22 -29 -24 -40 -4 -21
-35 -32 -98 -33 -54 -1 -111 -16 -120 -32 -10 -15 -2 -131 9 -142 5 -5 34 5
67 22 61 31 138 42 196 26 21 -5 29 -2 37 13 13 25 14 92 2 111 -6 9 -3 26 7
48 27 57 -8 119 -41 71z"/>
<path d="M10143 9923 c-66 -83 -85 -102 -140 -140 -36 -25 -56 -46 -61 -66 -6
-25 -13 -30 -42 -33 -19 -2 -56 -6 -81 -9 -52 -6 -79 1 -79 20 0 7 -14 30 -31
51 -23 29 -29 45 -24 64 4 14 7 36 8 50 2 24 -1 25 -48 25 -42 0 -50 3 -47 18
4 26 -23 21 -62 -14 -27 -23 -36 -41 -42 -77 -3 -26 -13 -55 -21 -64 -17 -20
-8 -43 38 -91 24 -25 29 -39 29 -78 0 -69 -24 -112 -76 -138 -25 -11 -55 -21
-68 -21 -39 0 -59 -33 -53 -85 5 -51 23 -70 75 -80 34 -6 87 -66 98 -111 8
-32 -13 -90 -43 -120 -32 -33 -22 -44 55 -61 82 -17 110 -16 129 6 9 11 21 17
27 13 6 -3 69 -7 141 -9 71 -1 188 -6 260 -10 l129 -8 9 -36 c9 -39 44 -64 73
-52 21 8 14 81 -11 119 -14 21 -22 25 -45 20 -20 -3 -36 1 -51 13 l-23 18 13
159 c23 280 31 748 13 766 -7 7 -22 -5 -49 -39z m7 -261 l21 -17 -29 -73 c-34
-85 -49 -103 -99 -121 -21 -8 -55 -31 -75 -52 -33 -34 -44 -39 -82 -39 -25 0
-48 5 -51 10 -3 6 -17 10 -31 10 -44 0 -58 30 -59 131 0 50 4 94 10 98 5 5 43
11 84 15 58 5 80 12 103 31 26 22 39 25 108 25 59 0 83 -4 100 -18z m-390
-431 c0 -87 -19 -167 -46 -192 -38 -36 -52 -20 -42 48 5 32 11 92 14 133 4 57
11 80 26 97 l21 23 14 -26 c7 -15 13 -52 13 -83z m330 -21 c20 -31 10 -67 -31
-114 -66 -75 -122 -94 -175 -59 -35 23 -45 52 -28 85 8 15 14 38 14 52 0 47
24 58 122 54 65 -2 91 -7 98 -18z"/>
<path d="M4595 9939 c-33 -14 -45 -28 -63 -70 l-23 -51 22 -67 c12 -36 28 -79
35 -94 8 -16 14 -37 14 -48 0 -22 44 -53 65 -45 11 4 15 21 15 63 0 36 8 75
20 102 25 54 25 66 -1 143 -29 85 -35 90 -84 67z"/>
<path d="M7570 9941 l-45 -6 0 -60 c-1 -75 10 -93 35 -62 18 21 20 21 47 7 41
-23 41 -48 -1 -65 -40 -17 -66 -49 -66 -83 0 -13 -7 -36 -15 -53 -18 -35 -50
-138 -59 -191 -8 -44 2 -53 64 -53 38 0 45 -3 48 -21 2 -12 -3 -28 -11 -35 -7
-8 -20 -28 -28 -44 -9 -18 -26 -33 -44 -38 -69 -20 -80 -31 -78 -73 2 -35 -2
-41 -35 -63 -20 -13 -55 -26 -77 -29 -52 -6 -75 -27 -75 -67 0 -18 -8 -56 -17
-85 -25 -77 -18 -83 108 -92 198 -15 298 -12 320 7 25 23 24 26 -12 79 -28 42
-34 46 -72 46 -57 0 -114 17 -121 36 -7 18 2 63 17 82 6 8 40 12 105 12 81 0
101 -3 136 -23 38 -21 52 -23 169 -21 73 1 133 6 139 12 13 13 20 139 10 177
l-8 28 -22 -23 c-12 -13 -22 -27 -22 -31 0 -5 -10 -17 -21 -28 -12 -11 -27
-30 -33 -43 -6 -12 -32 -33 -58 -47 -45 -24 -47 -24 -73 -7 -33 22 -41 43 -27
67 15 23 15 49 2 49 -39 0 48 108 113 139 27 13 63 21 95 21 47 0 53 3 62 26
14 35 22 285 11 303 -12 18 -41 7 -42 -16 -1 -30 -63 -106 -105 -130 -30 -18
-55 -23 -111 -23 l-73 0 0 -134 c0 -104 3 -138 14 -149 13 -12 12 -20 -6 -56
-35 -70 -53 -50 -66 74 -10 91 -3 195 17 250 5 17 12 117 14 223 4 186 4 193
-17 207 -11 8 -25 14 -31 13 -5 0 -30 -4 -55 -7z"/>
<path d="M32 9772 l-32 -29 0 -326 c0 -180 4 -327 8 -327 20 0 42 39 42 73 0
26 4 37 15 37 12 0 15 13 15 55 0 48 3 55 19 55 26 0 33 26 21 75 -5 22 -10
61 -10 88 0 35 -4 47 -15 47 -19 0 -19 19 -1 43 15 19 11 94 -5 112 -5 5 -9
35 -9 67 0 32 -4 58 -8 58 -5 0 -23 -13 -40 -28z"/>
<path d="M3107 9748 c-8 -13 -23 -41 -33 -62 -25 -52 -63 -79 -122 -86 -33 -3
-47 -10 -47 -20 0 -11 11 -15 42 -15 24 -1 49 -8 60 -17 10 -9 42 -23 70 -31
50 -15 56 -15 98 4 25 11 58 19 73 18 89 -7 117 13 108 75 -11 82 -26 140 -39
148 -6 4 -54 8 -104 8 -85 0 -94 -2 -106 -22z"/>
<path d="M5776 9659 c-16 -5 -43 -23 -60 -42 -23 -26 -42 -36 -78 -41 -25 -4
-51 -13 -57 -20 -6 -7 -30 -13 -53 -14 -48 -2 -62 -10 -30 -19 42 -11 20 -43
-30 -43 -11 0 -39 -16 -62 -35 -24 -19 -48 -35 -53 -35 -16 0 -33 -24 -25 -36
4 -6 14 -13 22 -16 8 -3 -21 -7 -65 -11 -73 -5 -81 -8 -110 -39 -16 -18 -39
-50 -50 -70 -22 -43 -29 -46 -45 -20 -9 16 -11 16 -21 -1 -5 -9 -14 -15 -19
-12 -4 3 -6 -4 -3 -14 3 -11 0 -35 -7 -55 -8 -26 -8 -45 0 -75 10 -38 14 -120
11 -251 -1 -30 3 -56 9 -58 5 -2 10 -10 10 -18 0 -8 7 -26 16 -39 15 -23 15
-27 -1 -51 -15 -24 -15 -29 -1 -65 9 -22 16 -63 16 -92 0 -28 9 -76 20 -105
11 -29 20 -59 20 -68 0 -31 137 -309 171 -346 11 -13 47 -57 79 -99 50 -64
147 -164 276 -285 16 -16 87 -83 158 -149 111 -104 181 -158 236 -181 44 -18
120 -60 120 -66 0 -3 19 -17 43 -31 23 -14 58 -41 76 -61 37 -38 61 -45 80
-22 17 20 49 143 54 205 2 29 9 57 16 64 6 6 11 21 11 33 0 13 6 29 13 36 7 7
19 32 27 56 12 38 12 45 -1 53 -12 8 -12 10 1 19 22 15 32 12 69 -18 29 -24
34 -35 37 -83 6 -81 12 -97 42 -113 15 -8 44 -32 64 -53 46 -47 61 -118 58
-267 -1 -54 4 -118 10 -141 14 -49 3 -79 -30 -90 -11 -3 -20 -13 -20 -22 0 -9
-11 -31 -25 -49 -14 -18 -25 -38 -25 -44 0 -7 -6 -24 -14 -38 -28 -54 -37
-120 -26 -189 14 -84 26 -109 46 -92 8 6 14 16 14 22 0 5 21 42 47 81 97 147
174 244 266 331 87 83 96 94 101 135 3 25 15 115 27 200 38 266 37 315 -8 580
-9 52 -16 109 -15 127 1 18 -2 43 -8 57 -8 22 -6 28 16 43 22 14 25 21 20 49
-5 21 -2 34 6 38 7 3 2 3 -11 0 -21 -6 -20 -2 13 31 31 31 39 35 52 24 13 -11
14 -9 8 17 -9 40 -22 65 -50 94 -12 14 -35 47 -49 75 -15 27 -40 65 -56 85
-16 19 -34 41 -40 48 -5 6 -14 12 -19 12 -19 0 -50 -45 -56 -79 -5 -35 -20
-78 -50 -149 -8 -18 -14 -44 -14 -58 0 -13 -9 -62 -19 -107 -37 -159 -51 -225
-51 -245 0 -12 -4 -24 -10 -27 -5 -3 -9 -54 -9 -118 1 -147 3 -139 -23 -135
-20 3 -23 8 -20 43 2 22 -1 51 -7 65 -8 21 -10 22 -10 6 -1 -15 -9 -9 -33 23
-21 29 -31 53 -30 76 1 25 -4 35 -24 44 -30 13 -59 1 -69 -28 -3 -11 -19 -24
-35 -30 -20 -7 -30 -17 -30 -30 0 -11 -11 -28 -25 -37 -13 -9 -30 -32 -37 -51
l-13 -35 -55 7 c-30 4 -70 16 -89 28 -28 17 -37 18 -53 8 -46 -29 -82 16 -65
81 10 41 15 43 98 53 39 4 63 13 77 28 39 42 94 77 120 77 24 0 120 91 115
108 -3 7 -21 19 -41 28 -20 8 -47 25 -59 36 -13 12 -23 18 -23 13 0 -5 -18 8
-40 30 -34 33 -48 40 -98 46 -72 8 -135 36 -128 56 8 20 -42 63 -72 63 -17 0
-23 4 -18 15 3 8 -1 21 -9 28 -26 27 6 53 82 67 38 7 79 20 93 30 14 9 33 20
44 23 13 5 15 11 8 20 -6 7 -9 22 -7 32 2 11 4 22 4 25 1 3 5 -2 10 -9 8 -12
11 -9 16 12 10 37 0 57 -27 57 -28 0 -68 26 -68 44 0 13 -25 21 -100 32 -19 3
-44 9 -55 14 -35 15 -78 23 -135 24 -44 1 -55 5 -58 19 -3 15 6 17 75 18 171
2 199 6 313 44 63 21 131 40 150 43 19 2 40 8 45 12 6 4 34 15 63 23 55 17 98
10 134 -20 10 -9 36 -14 70 -13 75 2 78 2 78 -14 0 -21 21 -31 31 -15 5 8 9
28 9 45 0 17 5 46 11 63 10 29 9 35 -10 54 l-22 22 -19 -25 c-11 -14 -21 -34
-23 -45 -3 -16 -7 -12 -21 19 l-17 39 -92 -6 c-51 -3 -118 -13 -150 -21 -63
-17 -95 -14 -213 26 l-60 20 -2 59 c-1 38 -9 69 -22 91 -33 55 -22 93 36 126
15 9 17 13 7 23 -7 7 -13 16 -13 20 0 16 33 39 55 39 31 0 113 39 119 57 7 17
-34 54 -53 49 -45 -12 -131 -17 -131 -7 0 6 -7 11 -15 11 -8 0 -15 4 -15 10 0
16 -69 40 -116 40 -31 0 -56 -8 -83 -25 -37 -25 -41 -26 -117 -16 -43 5 -82 8
-86 5 -12 -8 -48 20 -48 38 0 31 40 86 71 97 31 11 36 20 17 39 -9 9 -7 19 6
45 10 18 17 41 15 52 -5 23 -51 35 -93 24z m-91 -435 c7 -10 30 -18 58 -19 29
-2 54 -11 68 -24 12 -11 27 -17 35 -14 8 3 14 1 14 -5 0 -5 14 -15 30 -22 39
-16 43 -23 28 -57 -6 -15 -12 -35 -13 -43 0 -8 -8 -14 -16 -12 -9 1 -41 -9
-70 -23 -34 -16 -72 -25 -103 -25 -27 0 -66 -5 -88 -12 -31 -9 -44 -9 -59 0
-10 7 -30 12 -44 12 -14 0 -25 3 -25 7 0 12 33 43 47 43 7 0 13 7 13 15 0 8
13 21 29 29 16 9 31 26 35 40 4 15 15 26 29 29 l22 4 -22 8 c-27 9 -29 32 -7
63 18 26 23 27 39 6z m-5 -909 c0 -11 11 -15 38 -15 31 0 41 -5 52 -26 12 -22
12 -27 0 -34 -12 -8 -10 -10 7 -10 26 0 36 -13 40 -54 4 -40 17 -52 63 -60 57
-9 55 -36 -3 -36 -24 0 -48 -5 -54 -11 -6 -6 -22 -7 -39 -3 -25 6 -26 8 -9 15
17 7 18 8 3 8 -10 1 -18 7 -18 14 0 18 -43 37 -69 30 -29 -7 -53 43 -29 61 34
25 26 72 -13 80 -25 5 -30 10 -26 25 3 13 -1 21 -12 24 -9 3 3 5 27 6 31 1 42
-3 42 -14z"/>
<path d="M4378 9571 c-106 -27 -100 -10 -93 -270 3 -124 8 -254 11 -288 8 -91
13 -93 201 -93 84 0 153 1 154 3 0 1 3 58 5 127 l6 125 -37 60 c-54 89 -94
181 -112 260 -23 105 -23 105 -135 76z"/>
<path d="M6425 9550 c-10 -17 6 -53 41 -93 21 -22 34 -48 34 -64 0 -19 16 -41
59 -82 32 -31 61 -63 64 -72 4 -11 14 -15 36 -11 17 2 34 8 37 13 9 15 -26 69
-51 81 -24 11 -35 38 -15 38 5 0 -2 11 -15 25 -14 13 -25 33 -25 45 0 12 -9
24 -22 29 -34 13 -88 65 -88 84 0 19 -44 24 -55 7z"/>
<path d="M8345 9440 c-88 -8 -111 -13 -122 -23 -3 -4 49 -7 118 -7 68 0 204
-1 301 -2 98 -1 180 1 184 4 26 26 -113 40 -172 18 -19 -8 -30 -7 -41 2 -18
14 -156 19 -268 8z"/>
<path d="M3475 9256 c-47 -20 -58 -39 -50 -86 12 -71 94 -105 134 -54 11 14
21 30 23 36 4 11 475 13 554 2 63 -9 89 26 64 90 l-9 25 -343 0 c-253 -1 -351
-4 -373 -13z"/>
<path d="M8208 9063 c-27 -2 -48 -8 -48 -13 0 -18 87 -32 239 -37 202 -7 233
-6 243 9 17 29 -24 38 -152 37 -69 -1 -150 1 -180 3 -30 3 -76 3 -102 1z"/>
<path d="M9874 8866 c-35 -25 -41 -146 -8 -185 5 -6 84 43 85 53 0 6 2 30 4
52 2 23 6 51 10 63 5 17 2 21 -19 21 -13 0 -30 2 -38 5 -7 3 -23 -1 -34 -9z"/>
<path d="M4988 8593 c-9 -10 -25 -36 -36 -58 -23 -45 -77 -100 -108 -109 -11
-4 -27 -19 -35 -34 -24 -48 -72 -92 -100 -92 -16 0 -29 -7 -32 -17 -12 -36
-59 -109 -90 -138 -30 -29 -132 -85 -154 -85 -6 0 -22 -9 -36 -20 -14 -11 -54
-29 -88 -40 -34 -11 -82 -34 -107 -50 -25 -17 -49 -30 -54 -30 -4 0 -16 -8
-27 -17 -10 -10 -27 -25 -38 -33 -10 -8 -26 -27 -36 -42 -9 -15 -30 -29 -47
-33 -20 -4 -36 -17 -46 -36 -11 -22 -20 -28 -33 -24 -10 3 -29 -4 -45 -16 -15
-12 -45 -25 -66 -30 -21 -5 -50 -19 -64 -32 -14 -13 -45 -32 -68 -41 -24 -10
-50 -22 -58 -27 -37 -21 -86 -40 -124 -46 -66 -10 -206 -109 -206 -145 0 -10
-9 -26 -20 -35 -22 -19 -106 -42 -157 -43 -18 0 -33 -3 -33 -7 0 -20 -89 -63
-131 -64 -24 -1 -36 -3 -26 -6 9 -2 17 -8 17 -11 -1 -21 -22 -28 -85 -30 -48
-2 -74 -7 -81 -17 -6 -8 -20 -15 -30 -15 -10 0 -32 -7 -48 -15 -44 -23 -70
-18 -136 26 -41 27 -67 38 -80 34 -31 -10 -23 -32 16 -45 19 -7 38 -19 42 -29
3 -9 12 -22 19 -29 7 -8 11 -17 8 -22 -9 -14 -68 10 -91 37 -12 14 -27 22 -33
19 -6 -4 -11 -2 -11 3 0 25 -59 4 -117 -42 -51 -39 -97 -100 -133 -176 -23
-47 -45 -93 -50 -102 -5 -9 -11 -38 -15 -65 -4 -27 -16 -78 -27 -114 -17 -56
-19 -82 -13 -185 6 -108 4 -125 -14 -166 -11 -25 -29 -54 -41 -64 -11 -10 -20
-23 -20 -29 0 -6 -13 -27 -28 -46 -27 -34 -46 -64 -99 -158 -50 -89 -55 -117
-63 -337 -7 -178 -11 -220 -30 -275 -23 -67 -78 -193 -107 -245 -21 -38 -65
-119 -92 -170 -11 -22 -35 -78 -52 -125 -38 -102 -50 -249 -29 -362 l12 -70
42 5 c22 3 111 15 196 26 85 11 254 27 375 36 120 8 280 20 355 25 74 6 162
10 195 9 33 -1 68 2 78 6 10 4 24 2 34 -6 13 -11 17 -11 20 -1 3 6 13 12 23
12 10 0 21 -6 24 -12 5 -10 7 -10 12 0 3 7 26 12 59 12 48 0 53 -2 48 -20 -5
-19 -50 -38 -98 -41 -11 -1 6 -5 38 -9 32 -4 59 -9 61 -11 2 -2 6 -23 9 -45 5
-37 4 -43 -16 -48 -12 -4 -132 -11 -267 -16 -135 -5 -265 -11 -290 -14 -25 -3
-108 -11 -185 -17 -177 -13 -479 -45 -611 -64 -56 -8 -121 -15 -145 -15 -41 0
-46 -3 -71 -44 -14 -24 -24 -46 -22 -49 3 -3 20 -1 37 3 133 36 1137 126 1506
136 201 6 190 9 165 -50 -6 -16 -4 -18 9 -13 9 3 19 2 22 -3 3 -5 12 -7 19 -4
7 3 19 -2 26 -11 8 -10 9 -15 1 -15 -6 0 -11 4 -11 9 0 5 -15 8 -32 7 -28 -2
-33 -6 -31 -24 3 -25 -18 -30 -36 -8 -14 17 -52 9 -45 -9 3 -7 12 -12 21 -11
9 0 18 -5 20 -11 3 -8 -4 -13 -16 -13 -12 0 -21 -4 -21 -10 0 -16 -19 -11 -40
10 -12 12 -25 18 -30 15 -15 -9 -12 -35 4 -35 8 0 18 -5 21 -10 4 -6 1 -9 -7
-8 -7 2 -12 -3 -10 -10 3 -17 -25 -45 -33 -33 -3 6 -12 8 -20 4 -9 -3 -15 1
-15 11 0 9 -5 16 -10 16 -6 0 -10 8 -8 18 2 12 -4 17 -19 17 -12 0 -30 10 -38
23 -9 12 -22 22 -30 22 -7 0 -15 4 -17 8 -1 5 -16 12 -33 16 l-30 6 30 -25
c23 -19 26 -25 13 -25 -10 0 -18 5 -18 10 0 14 -27 12 -33 -2 -4 -10 -7 -10
-15 0 -5 7 -16 10 -25 6 -13 -5 -16 -2 -11 10 5 14 2 16 -22 11 l-29 -7 24 20
24 19 -29 6 c-16 4 -39 9 -51 13 -29 8 -32 -22 -4 -31 19 -6 19 -39 0 -51 -15
-9 -49 16 -49 36 0 21 -17 25 -57 14 -16 -4 -24 -17 -29 -40 -3 -19 -8 -34
-10 -34 -16 0 -54 48 -52 65 2 14 -2 19 -15 17 -9 -2 -17 2 -17 9 0 6 -8 1
-19 -12 -10 -12 -16 -31 -13 -41 6 -23 28 -18 24 6 -2 9 2 16 8 16 5 0 10 -11
10 -25 0 -16 6 -25 16 -25 10 0 14 -6 11 -14 -3 -8 5 -19 19 -26 24 -14 32
-30 14 -30 -5 0 -10 5 -10 10 0 6 -9 10 -20 10 -14 0 -18 -5 -13 -17 5 -13 2
-15 -12 -10 -9 4 -24 2 -31 -4 -11 -9 -14 -8 -14 5 0 10 -8 16 -21 16 -17 0
-19 3 -10 14 20 23 -18 30 -62 11 -12 -5 -26 2 -49 24 -43 42 -70 41 -31 -1 9
-10 13 -21 9 -26 -4 -4 -13 1 -20 11 -17 22 -26 22 -26 -3 0 -11 5 -20 10 -20
6 0 10 -7 10 -15 0 -9 -9 -15 -21 -15 -17 0 -20 4 -15 24 7 28 -2 40 -21 25
-10 -9 -13 -8 -13 5 0 19 1 19 -39 5 -23 -8 -35 -8 -45 0 -17 14 -86 7 -97
-10 -4 -8 -22 -10 -49 -6 -38 5 -41 4 -37 -14 3 -12 0 -22 -9 -26 -22 -8 -27
2 -14 27 10 20 9 21 -12 18 -17 -2 -24 -10 -26 -33 -5 -37 -19 -55 -43 -55
-14 0 -19 7 -19 25 0 26 -24 35 -33 13 -4 -9 -8 -10 -14 -2 -11 15 -56 12 -76
-5 -13 -11 -20 -11 -32 -1 -22 18 -37 3 -24 -23 10 -21 9 -21 -10 2 -12 13
-27 21 -36 17 -9 -3 -15 0 -15 10 0 9 -6 14 -12 11 -7 -2 -12 -12 -11 -22 1
-16 0 -16 -15 -2 -12 13 -13 19 -3 31 7 8 8 17 3 20 -6 3 -18 -11 -27 -32 -10
-20 -20 -40 -22 -44 -2 -4 3 -5 12 -2 11 5 14 2 9 -12 -13 -34 -17 -38 -24
-18 -6 15 -9 11 -20 -21 -13 -38 -12 -58 5 -345 3 -56 2 -76 -4 -60 -13 35
-13 -124 -1 -269 9 -117 5 -143 -35 -191 -17 -22 -25 -49 -16 -54 13 -8 91 52
91 69 0 8 4 15 8 15 5 0 19 -118 32 -262 12 -145 24 -266 26 -269 3 -6 37 -12
149 -27 56 -8 62 -22 16 -37 -17 -5 -31 -13 -31 -18 0 -15 28 -37 72 -56 57
-25 120 -81 152 -135 19 -33 26 -59 27 -107 2 -74 -13 -111 -50 -130 -14 -7
-27 -14 -29 -15 -2 -1 1 -12 7 -23 10 -18 19 -20 79 -16 74 5 192 21 199 28 2
3 6 22 7 43 2 22 4 43 5 47 1 5 6 5 12 2 6 -4 9 0 7 11 -2 12 3 19 12 19 10 0
22 -22 35 -62 14 -44 25 -63 37 -63 9 0 19 4 22 8 7 11 114 37 122 30 5 -6
-13 -44 -38 -80 -11 -15 -7 -23 22 -54 19 -20 50 -43 68 -50 38 -17 40 -27 8
-42 -21 -9 -25 -20 -30 -79 -11 -124 -11 -141 7 -161 10 -10 17 -35 17 -56 0
-49 15 -77 38 -69 9 4 20 11 25 17 5 7 11 5 17 -6 6 -9 29 -27 51 -40 42 -23
78 -74 98 -139 11 -35 75 -119 90 -119 5 0 11 18 14 41 3 22 8 43 11 46 3 4
29 -1 57 -10 187 -61 352 37 366 217 3 45 2 57 -6 46 -6 -8 -11 -27 -11 -41 0
-37 -19 -89 -45 -124 -55 -74 -205 -116 -288 -81 -37 15 -43 36 -11 36 21 0
86 35 124 67 67 56 98 171 66 247 -22 53 -36 51 -19 -2 13 -39 13 -57 4 -103
-16 -75 -56 -121 -145 -165 -80 -41 -126 -79 -126 -106 0 -26 -17 -22 -37 9
-22 33 -21 91 2 126 9 15 46 47 80 72 64 45 105 97 105 131 0 15 -4 12 -19
-11 -21 -34 -54 -65 -128 -120 -29 -22 -53 -43 -53 -47 0 -4 -7 -8 -15 -8 -9
0 -15 9 -15 21 0 22 49 75 134 143 51 41 85 101 67 119 -19 19 -148 -11 -186
-44 -33 -30 -55 -37 -55 -19 0 6 -7 27 -15 47 -11 26 -18 33 -28 26 -24 -20
-63 -23 -85 -7 -32 22 -27 34 13 34 20 0 62 11 95 25 33 14 74 25 92 24 l33 0
-40 -20 -40 -19 65 6 c36 4 67 8 69 10 2 2 -4 13 -15 25 -17 20 -26 21 -100
16 -70 -5 -84 -3 -98 12 -27 30 -20 67 14 81 39 16 39 34 0 25 -23 -5 -30 -3
-30 9 0 19 20 24 98 28 82 4 102 21 79 71 -9 18 -21 55 -27 81 -6 26 -17 61
-25 77 -20 37 -19 39 8 39 13 0 32 -9 42 -20 11 -13 25 -18 37 -14 22 7 36
-22 19 -39 -6 -6 -11 -24 -11 -39 0 -34 36 -53 74 -39 32 13 38 36 15 57 -23
21 -24 37 -4 54 8 7 15 24 15 39 0 34 26 72 45 65 8 -4 20 -25 27 -48 6 -22
15 -45 20 -51 13 -15 9 -37 -9 -58 -17 -18 -17 -20 6 -38 28 -23 45 -24 65 -3
18 17 21 60 6 69 -16 10 -12 45 6 45 9 0 29 11 46 25 37 31 53 32 43 3 -3 -13
-12 -49 -20 -81 -13 -58 -25 -84 -25 -55 0 8 4 28 9 44 5 16 12 43 15 59 6 28
5 29 -8 12 -8 -11 -18 -48 -21 -83 -8 -72 -20 -86 -73 -89 -75 -4 -161 -18
-157 -26 10 -15 67 -22 75 -9 5 8 30 12 69 11 59 -1 62 0 81 31 11 18 20 26
20 18 0 -9 -7 -26 -16 -38 -17 -24 -6 -29 27 -12 24 13 27 -11 4 -34 -20 -20
-19 -26 5 -26 29 0 70 -21 70 -37 0 -7 -7 -13 -15 -13 -24 0 -18 -9 33 -55 26
-23 57 -62 68 -86 68 -142 68 -139 33 -139 -9 0 -26 12 -38 28 -20 27 -20 27
-14 2 4 -13 22 -67 40 -120 49 -139 48 -133 32 -128 -8 2 -15 14 -17 26 -2 11
-10 26 -19 33 -13 11 -18 10 -33 -9 -10 -12 -23 -22 -29 -22 -7 0 -11 -22 -11
-54 0 -36 -5 -58 -16 -66 -37 -31 -67 -101 -67 -156 0 -39 -4 -54 -13 -54 -8
0 -14 7 -14 15 0 24 -33 35 -61 22 -18 -9 -25 -23 -30 -55 -7 -52 -10 -56 -55
-54 -49 2 -54 10 -21 34 25 18 57 66 57 84 0 4 -14 -7 -32 -25 -58 -59 -80
-65 -180 -51 -48 7 -115 10 -148 7 -53 -6 -61 -4 -70 13 -15 27 -27 25 -60
-10 -29 -31 -32 -32 -158 -32 -42 0 -72 6 -88 17 -14 9 -32 14 -39 11 -8 -3
-17 -1 -20 3 -4 8 -39 13 -173 26 -41 4 -127 42 -164 73 -10 8 -22 11 -30 5
-35 -22 -103 -29 -153 -15 -27 8 -66 16 -85 19 -19 3 -39 12 -43 19 -4 8 -17
14 -28 14 -11 0 -49 14 -85 31 l-64 31 -40 -21 c-35 -18 -41 -19 -55 -5 -8 8
-19 13 -24 10 -4 -3 -17 4 -27 15 -13 15 -25 18 -48 14 -53 -11 -86 -27 -86
-43 0 -10 -14 -2 -39 23 -41 41 -101 68 -128 58 -17 -7 -52 31 -53 58 0 10
-11 37 -25 60 -34 60 -33 115 2 174 16 25 35 45 44 45 9 0 39 -25 65 -55 39
-43 55 -55 79 -55 16 0 50 -9 74 -20 24 -11 57 -20 75 -20 17 0 47 -5 66 -11
19 -6 76 -16 125 -24 121 -18 207 -33 285 -52 37 -9 133 -18 223 -20 153 -5
163 -4 290 27 180 44 179 43 175 83 l-3 32 -57 -3 c-31 -2 -75 2 -96 7 -21 6
-59 13 -83 16 -24 2 -69 9 -99 14 -30 5 -77 7 -105 4 -44 -4 -53 -1 -77 21
-15 14 -30 26 -33 26 -4 0 -21 11 -38 24 -33 24 -53 31 -147 46 -76 13 -160 0
-160 -25 0 -32 -97 -23 -112 11 -7 14 -20 24 -32 24 -24 1 -56 22 -56 37 0 12
-70 23 -141 23 -35 0 -58 -7 -85 -25 -44 -30 -63 -31 -95 -7 -13 10 -32 21
-42 25 -9 4 -22 18 -29 32 -7 15 -18 25 -28 23 -22 -4 -50 20 -50 43 0 43 -38
22 -59 -33 -7 -20 -6 -48 5 -105 8 -43 19 -106 23 -140 5 -34 16 -76 24 -95
45 -105 49 -132 36 -233 -14 -112 -9 -174 26 -330 40 -179 105 -317 170 -359
13 -9 71 -60 127 -113 100 -94 135 -138 179 -226 12 -23 35 -58 50 -77 50 -60
29 -118 -23 -68 -16 16 -58 25 -58 13 0 -9 79 -45 98 -45 10 0 33 -16 52 -35
l34 -35 138 0 c125 0 138 2 138 18 0 39 -42 410 -50 447 -13 55 -12 65 4 65
19 0 26 -22 26 -85 0 -50 2 -55 35 -75 19 -12 35 -28 35 -36 0 -8 9 -23 21
-35 21 -21 21 -46 -1 -41 -14 3 -40 -16 -40 -29 0 -5 7 -9 16 -9 22 0 11 -25
-12 -26 -36 -2 -39 -5 -20 -19 10 -7 15 -18 11 -24 -7 -12 24 -15 41 -3 6 4
14 20 18 35 8 32 26 31 41 -1 5 -12 14 -22 19 -22 6 0 1 -6 -9 -14 -19 -14
-19 -15 7 -26 17 -8 43 -10 72 -6 41 6 44 9 34 25 -7 12 -22 18 -42 17 -21 -1
-31 4 -34 17 -4 19 26 36 37 20 3 -6 33 -10 66 -9 53 1 61 4 72 26 l12 24 9
-24 c8 -21 6 -26 -11 -33 -21 -8 -21 -8 2 -20 14 -7 30 -29 37 -49 l13 -38
-37 0 c-62 0 -298 29 -326 40 -39 14 -49 13 -38 -6 5 -9 7 -24 5 -34 -12 -47
96 -70 324 -70 l178 0 -3 45 c-4 40 -2 45 17 45 13 0 21 -6 21 -17 0 -15 -2
-16 -10 -3 -7 11 -10 5 -10 -24 0 -35 2 -37 17 -25 15 12 16 12 10 -3 -4 -12
-1 -18 8 -18 12 0 15 11 13 47 -3 39 0 48 15 51 18 4 22 -3 32 -60 9 -55 27
-47 23 10 -3 41 -1 47 17 47 17 0 20 -8 23 -47 3 -41 6 -48 24 -48 18 0 20 5
15 32 -3 18 -8 41 -12 51 -6 13 -2 17 15 17 17 0 20 -4 15 -20 -9 -29 4 -80
21 -80 12 0 13 10 8 48 l-6 49 31 0 c33 0 38 -6 20 -24 -8 -8 -8 -17 0 -31 14
-27 14 -32 -3 -26 -8 3 -17 1 -21 -5 -4 -7 9 -11 37 -11 29 0 38 3 29 9 -8 5
-15 27 -15 53 -1 36 2 43 18 43 25 0 43 -61 27 -87 -11 -17 6 -18 304 -18
l315 0 0 39 c0 44 3 45 102 57 40 5 57 3 63 -6 6 -10 4 -12 -8 -7 -11 4 -17 1
-17 -9 0 -9 -13 -29 -29 -45 l-29 -29 59 0 c33 0 76 7 96 15 45 19 52 19 27 0
-17 -13 295 -14 2599 -15 l2617 0 0 93 c0 95 18 436 25 473 5 23 19 41 119
144 90 94 123 138 166 220 18 36 41 76 50 90 9 14 27 52 39 85 61 159 134 315
162 341 38 36 89 124 89 153 0 13 25 48 63 87 80 83 117 146 117 201 0 23 9
66 21 95 12 29 27 73 35 98 19 61 18 231 -1 294 -12 40 -13 65 -5 130 5 44 10
84 10 88 0 26 103 11 535 -78 121 -25 243 -50 270 -55 61 -12 301 -59 333 -66
l22 -5 0 224 0 224 -70 12 c-39 7 -86 12 -104 12 -40 0 -225 47 -242 61 -6 5
-43 12 -80 16 -38 3 -77 10 -86 14 -9 5 -56 10 -105 10 -57 1 -107 9 -143 21
-30 10 -89 23 -130 28 -40 6 -78 14 -82 18 -5 5 -9 39 -9 78 -1 78 -15 109
-62 139 -24 16 -34 32 -43 70 -15 66 -41 121 -81 172 -41 52 -42 77 -4 93 17
7 36 10 43 7 7 -2 48 8 91 24 51 18 109 30 173 34 128 10 158 29 162 104 4 72
-4 80 -84 73 l-65 -5 -44 47 c-42 46 -44 51 -51 128 l-7 80 -43 20 c-24 10
-44 23 -44 28 0 5 -9 12 -20 15 -22 7 -57 -11 -101 -52 l-26 -24 -17 26 c-34
51 -86 237 -96 340 -5 55 -14 151 -20 213 -6 63 -17 132 -25 155 -25 75 -38
205 -31 306 10 155 23 285 30 301 3 8 16 74 27 145 11 72 27 173 35 225 17
102 14 394 -5 535 -6 39 -15 147 -21 240 -12 200 -29 254 -117 379 -44 63 -64
82 -101 98 -26 11 -58 31 -72 43 -24 21 -53 39 -180 108 -62 33 -152 88 -160
97 -8 9 -77 40 -89 40 -6 0 -11 5 -11 10 0 6 -17 18 -37 27 -21 10 -56 29 -78
44 -22 14 -55 30 -72 33 -18 4 -35 11 -38 16 -3 4 -38 25 -77 45 -40 21 -88
49 -107 64 -19 14 -44 31 -55 38 -20 12 -19 12 10 13 17 0 43 -9 57 -20 14
-12 41 -26 59 -32 18 -6 53 -24 77 -40 25 -15 52 -28 60 -28 9 0 30 -9 48 -19
17 -11 49 -23 70 -27 21 -3 52 -15 69 -25 17 -10 33 -16 36 -14 10 10 58 -14
58 -29 0 -7 7 -17 16 -20 24 -9 28 -7 15 7 -8 11 -6 18 8 31 17 15 40 18 163
17 138 0 235 6 423 28 103 12 382 38 500 46 172 13 496 30 505 27 25 -9 31
-43 16 -85 -10 -29 -18 -121 -26 -307 -6 -146 -14 -295 -18 -331 -10 -96 -4
-114 39 -114 20 -1 49 -9 65 -20 32 -21 122 -26 201 -11 34 7 49 5 78 -13 20
-11 38 -21 41 -21 2 0 4 212 4 470 0 406 -2 470 -15 470 -25 0 -38 42 -39 120
l-1 75 -115 0 c-125 0 -454 -14 -895 -39 -630 -36 -682 -36 -1055 -6 -69 5
-242 14 -385 20 -310 12 -410 23 -491 56 -33 13 -65 24 -71 24 -6 0 -30 9 -54
20 -48 21 -99 26 -99 10 0 -6 6 -23 14 -38 7 -15 19 -52 27 -82 7 -30 20 -68
29 -85 9 -16 22 -59 30 -95 7 -36 18 -76 25 -90 22 -46 26 -90 10 -121 -9 -16
-19 -29 -24 -29 -4 0 -14 -12 -21 -26 -8 -14 -32 -35 -54 -46 -69 -35 -145
-109 -157 -152 -6 -21 -20 -48 -32 -60 -13 -13 -40 -51 -60 -86 -38 -63 -38
-64 -26 -114 7 -28 16 -55 20 -61 4 -5 10 -52 14 -104 l8 -93 34 -14 c20 -9
38 -26 44 -41 5 -14 11 -147 12 -297 2 -265 2 -272 -20 -309 -13 -21 -23 -48
-23 -60 0 -12 -9 -37 -20 -55 -17 -28 -20 -49 -19 -159 2 -123 10 -163 35
-163 27 0 27 -167 0 -221 -17 -34 -21 -108 -8 -137 5 -9 21 -40 35 -68 34 -65
35 -121 6 -310 -12 -76 -21 -143 -21 -149 0 -5 3 -242 6 -525 7 -575 0 -748
-29 -780 -12 -13 -19 -39 -21 -77 -2 -32 -9 -102 -15 -156 -13 -105 -31 -139
-49 -92 -5 14 -10 34 -10 43 0 14 -2 15 -10 2 -5 -8 -9 -66 -9 -130 0 -121 -9
-181 -28 -187 -20 -7 -25 33 -29 252 -3 208 -21 425 -34 425 -4 0 -6 -89 -6
-197 1 -127 -4 -232 -13 -291 -12 -76 -13 -121 -4 -245 11 -152 7 -246 -12
-250 -19 -4 -24 74 -28 396 -3 211 -8 332 -15 339 -7 7 -12 4 -15 -8 -11 -40
-18 -155 -18 -319 0 -166 1 -205 16 -392 4 -50 4 -104 0 -120 l-7 -28 -19 24
c-10 13 -19 32 -19 43 0 12 -4 37 -10 57 -5 20 -19 81 -31 136 -12 55 -35 127
-50 160 -32 71 -51 203 -54 380 -3 132 -4 153 -11 175 -11 33 -20 -13 -19 -90
1 -44 -3 -80 -7 -80 -19 0 -68 163 -68 226 0 38 -42 165 -76 226 -7 14 -14 36
-14 47 0 31 -68 309 -82 334 -13 25 -20 53 -53 204 -13 62 -29 122 -35 133
-16 30 -38 103 -56 190 -32 147 -22 482 27 945 6 55 12 114 14 131 1 17 6 56
9 85 l7 54 -24 -26 c-28 -31 -40 -122 -63 -494 -22 -347 -25 -375 -38 -375
-41 0 -86 224 -84 415 1 68 -4 119 -16 158 -18 61 -36 75 -36 29 0 -101 -48 1
-116 243 -9 33 -21 66 -27 73 -6 7 -47 122 -92 255 -96 282 -160 468 -179 517
-14 35 -29 101 -41 173 l-6 37 35 -16 c32 -16 53 -48 71 -109 3 -11 15 -31 26
-45 l21 -25 -6 37 c-4 31 -1 40 15 48 10 6 19 15 19 21 0 12 -110 119 -122
119 -5 0 -28 20 -52 44 -45 45 -107 163 -203 386 -25 58 -51 119 -58 135 -40
90 -59 138 -86 209 -15 43 -33 83 -38 90 -5 6 -20 40 -34 76 -14 36 -48 115
-77 175 -146 306 -147 309 -179 505 -27 158 -29 253 -7 304 9 21 16 42 16 47
0 15 -26 10 -42 -8z m3092 -2414 c30 -5 58 -13 63 -18 5 -5 13 -31 18 -57 14
-73 -1 -82 -87 -55 -37 11 -77 21 -88 21 -12 0 -32 7 -45 16 -20 14 -22 22
-17 57 11 64 3 62 156 36z m700 -1875 c61 -8 71 -34 13 -35 l-38 0 35 -12 c27
-9 36 -18 38 -39 3 -21 -1 -28 -15 -29 -10 0 -155 -2 -323 -4 -168 -2 -350 -8
-405 -13 -60 -6 -101 -6 -103 0 -2 5 -10 4 -17 -2 -10 -8 -10 0 -3 42 5 29 13
56 16 60 8 8 250 28 377 31 289 7 380 7 425 1z m37 -170 c40 -4 60 -10 51 -15
-10 -7 -10 -9 0 -9 7 0 12 -13 12 -30 0 -28 -2 -30 -27 -24 -25 7 -27 6 -14
-9 11 -14 11 -18 -3 -23 -11 -4 -23 3 -36 19 -14 18 -26 23 -45 20 -28 -6 -24
-23 5 -23 21 0 45 -34 35 -50 -12 -19 -35 -10 -41 15 -3 14 -10 25 -16 25 -5
0 -19 12 -32 26 -20 24 -24 25 -45 13 -19 -11 -25 -11 -28 -1 -8 20 -33 42
-50 42 -13 0 -13 -3 -3 -15 9 -11 10 -19 2 -27 -12 -12 -32 -2 -32 17 0 23
-40 13 -47 -12 -4 -19 -8 -21 -19 -12 -8 6 -14 20 -14 31 0 13 -6 18 -17 16
-22 -4 -30 -38 -10 -38 16 0 52 -48 43 -58 -3 -3 -6 -1 -6 5 0 8 -8 8 -25 0
-14 -7 -25 -15 -25 -19 0 -5 -5 -8 -11 -8 -8 0 -8 4 -1 13 7 8 7 18 2 27 -5 8
-6 18 -3 23 3 5 -1 13 -8 18 -23 14 -31 10 -24 -11 4 -11 2 -20 -4 -20 -6 0
-16 9 -23 20 -15 24 -33 27 -24 4 3 -8 2 -12 -4 -9 -6 3 -10 -3 -10 -14 0 -12
-4 -21 -9 -21 -5 0 -8 8 -7 18 1 12 -7 17 -26 17 -15 1 -30 4 -34 8 -11 11
-49 8 -60 -3 -7 -7 -20 -7 -35 -2 -33 12 -49 5 -49 -24 0 -15 -6 -24 -15 -24
-8 0 -15 7 -15 16 0 12 -9 15 -37 14 -21 -1 -58 -2 -82 -1 -37 1 -42 4 -37 19
5 14 4 14 -9 -2 -19 -25 -19 -13 0 24 14 27 19 29 101 35 220 19 704 30 811
19z m771 -171 c12 -24 5 -42 -32 -81 -36 -39 -82 -66 -101 -58 -24 9 -47 54
-40 76 6 19 12 21 45 15 36 -6 38 -5 33 16 -11 42 75 71 95 32z m-7272 -105
c4 -6 2 -14 -4 -16 -15 -5 -16 -42 -2 -42 6 0 10 5 10 12 0 6 9 3 20 -7 18
-16 19 -20 6 -40 -11 -17 -12 -25 -3 -34 29 -29 81 5 59 40 -15 23 -15 39 -2
39 6 0 24 10 39 21 39 29 54 18 35 -26 -8 -19 -14 -47 -14 -63 0 -50 -17 -60
-115 -66 -49 -3 -108 -8 -131 -11 l-40 -7 -30 73 c-16 41 -30 77 -32 81 -5 12
46 10 53 -2 3 -5 15 -10 27 -10 18 0 19 -4 13 -36 -7 -40 3 -54 43 -54 30 0
41 29 17 46 -15 11 -16 18 -8 36 6 13 15 35 22 51 11 29 25 35 37 15z m433
-193 c-3 -2 -99 -25 -214 -50 l-210 -47 -190 6 c-104 3 -196 6 -203 6 -7 0
-10 5 -7 11 5 7 79 10 218 9 203 0 219 1 382 34 159 31 234 42 224 31z m5811
-20 c0 -18 5 -25 20 -25 15 0 20 7 20 25 0 27 9 32 28 13 9 -9 12 -9 12 0 0 7
5 12 11 12 7 0 9 -10 5 -25 -4 -14 -2 -25 4 -25 5 0 10 11 10 25 0 20 5 25 25
25 16 0 25 -6 25 -16 0 -8 -4 -12 -10 -9 -14 9 -12 -8 3 -24 10 -11 10 -14 0
-18 -7 -3 -13 -14 -13 -25 0 -16 3 -18 13 -9 17 13 27 5 27 -24 0 -42 -75 -51
-97 -11 -7 13 -15 14 -46 5 -20 -5 -42 -7 -47 -4 -13 8 -13 135 0 135 6 0 10
-11 10 -25z m-306 -17 c-2 -4 5 -12 16 -18 18 -10 20 -8 20 20 0 27 3 30 30
30 30 0 35 -8 30 -54 -1 -11 3 -16 10 -11 6 4 10 18 8 33 -2 14 3 27 10 30 10
3 12 -11 10 -59 -2 -37 -7 -63 -13 -61 -5 2 -9 13 -8 25 2 18 1 17 -8 -5 -10
-25 -14 -27 -70 -27 l-59 1 0 57 c0 32 3 61 7 64 8 9 24 -14 17 -25z m-5568
-110 l7 -23 10 23 c10 21 47 32 47 12 0 -5 -7 -25 -16 -44 -16 -32 -16 -36 4
-78 12 -24 35 -51 52 -61 26 -16 33 -16 57 -5 21 11 28 20 26 41 -2 31 12 35
27 8 13 -25 -2 -66 -29 -80 -26 -14 -77 -14 -104 0 -18 10 -24 8 -44 -17 -24
-31 -21 -40 17 -47 14 -2 -20 -5 -75 -5 -83 -1 -96 1 -78 11 21 12 20 13 -22
50 -25 21 -46 33 -50 27 -3 -5 -22 -10 -41 -10 -38 0 -54 24 -54 83 0 18 -4
38 -9 45 -14 23 -20 -22 -8 -66 14 -52 -1 -72 -54 -72 l-38 0 -6 58 c-3 31 -8
73 -10 93 -5 35 -3 37 30 43 39 8 75 0 75 -15 0 -5 5 -9 10 -9 6 0 10 6 10 14
0 16 21 26 56 26 27 0 51 -38 41 -64 -9 -23 -37 -20 -37 4 0 11 -4 20 -10 20
-5 0 -10 -9 -10 -20 0 -21 33 -60 50 -60 6 0 15 -10 21 -22 7 -17 8 0 5 59 -2
46 0 85 4 88 18 11 40 -8 40 -35 0 -23 5 -28 30 -32 29 -4 30 -4 30 39 0 36 3
43 19 43 12 0 23 -9 27 -22z m-721 -124 c6 -84 5 -108 -6 -114 -22 -14 -27 -2
-35 81 -8 100 -24 85 -24 -24 0 -69 -3 -81 -25 -102 -29 -30 -58 -32 -85 -5
-24 24 -25 33 -5 50 21 18 48 5 40 -20 -9 -30 14 -25 25 6 6 14 10 49 10 77 0
95 30 157 76 157 21 0 22 -5 29 -106z m230 87 c3 -5 8 -36 10 -68 3 -32 8 -65
11 -74 7 -26 -23 -49 -65 -49 l-37 0 -11 93 c-5 50 -8 95 -6 100 6 10 91 9 98
-2z m6551 -117 c4 -13 4 -33 1 -43 -6 -24 7 -46 23 -36 7 4 10 27 9 58 -2 32
1 52 9 55 13 4 33 -39 29 -66 -1 -9 3 -18 8 -19 6 -1 10 18 9 43 0 44 0 45 30
42 20 -2 31 -9 31 -18 0 -8 -6 -14 -12 -12 -8 1 -13 -9 -13 -28 0 -17 6 -39
13 -50 9 -15 9 -22 1 -28 -22 -13 -21 -70 1 -86 22 -16 15 -29 -22 -40 -21 -7
-22 -4 -25 65 -2 47 -7 74 -15 77 -10 3 -13 -16 -13 -72 0 -72 -10 -100 -26
-74 -4 7 -7 31 -5 54 1 24 -3 45 -9 49 -19 12 -27 -12 -22 -65 4 -48 3 -50
-22 -50 l-26 0 0 133 c0 74 3 136 6 140 11 11 34 -5 40 -29z m-233 12 c18 -18
31 -204 17 -240 -9 -24 -15 -26 -65 -26 -37 0 -55 4 -56 13 0 6 -1 67 -2 134
l-2 122 35 4 c19 2 40 4 47 5 6 1 18 -4 26 -12z m163 5 c5 -6 8 -65 6 -135
l-3 -126 -25 0 c-20 0 -24 5 -24 31 0 43 -16 27 -23 -23 -4 -27 -14 -49 -27
-60 -25 -21 -70 -24 -88 -6 -9 9 -5 15 18 24 48 20 61 82 45 210 -10 75 4 94
63 94 27 0 52 -4 58 -9z m-672 -18 c13 -49 15 -82 8 -123 -6 -34 -12 -44 -25
-42 -14 2 -17 -5 -17 -41 0 -24 -3 -47 -7 -50 -14 -15 -33 18 -33 59 0 23 -4
46 -10 49 -5 3 -10 13 -10 21 0 8 5 12 10 9 6 -4 10 20 10 64 l0 71 34 0 c24
0 36 -5 40 -17z m171 3 c17 -12 20 -29 22 -111 1 -53 4 -99 7 -102 15 -16 24
19 31 117 l7 110 52 0 c29 0 57 -5 64 -12 8 -8 12 -48 12 -112 0 -55 5 -114
12 -133 14 -38 5 -52 -19 -31 -21 18 -107 18 -125 0 -16 -16 -28 -15 -28 1 0
6 -4 18 -9 26 -8 12 -12 12 -26 -2 -22 -22 -37 -21 -63 3 -24 22 -31 83 -11
96 14 8 33 -12 34 -36 0 -11 5 -19 10 -17 12 3 8 44 -7 75 -10 18 -9 25 1 31
7 5 11 21 8 42 l-3 34 -8 -32 c-5 -18 -12 -33 -15 -33 -15 0 -31 26 -31 50 0
47 44 66 85 36z m-4826 -263 c13 -48 24 -58 71 -67 55 -10 104 -51 134 -111
32 -67 33 -88 1 -151 -29 -59 -56 -78 -96 -69 -28 6 -41 34 -16 36 6 0 2 5
-11 11 -13 7 -21 19 -20 28 2 9 -3 24 -10 32 -7 9 -15 26 -17 38 -7 36 -32 58
-60 52 -14 -2 -25 -8 -25 -11 0 -4 -7 -8 -15 -8 -13 0 -13 2 0 17 8 9 15 24
15 33 0 9 5 19 11 23 8 5 10 39 5 118 -6 99 -5 109 8 91 8 -11 19 -39 25 -62z
m-144 22 c0 -23 -4 -29 -17 -27 -19 3 -29 -24 -25 -68 1 -18 9 -26 25 -28 12
-2 22 -6 22 -10 0 -4 3 -17 6 -29 5 -18 1 -25 -19 -32 -23 -9 -25 -14 -20 -53
7 -63 10 -68 38 -68 21 0 25 -5 25 -29 0 -26 -5 -30 -47 -40 -36 -10 -48 -9
-54 0 -4 7 -11 56 -14 108 -7 95 -16 121 -40 121 -9 0 -10 -11 -5 -42 5 -24
10 -79 11 -123 l4 -80 -29 -3 c-39 -5 -46 10 -46 95 0 64 -2 72 -21 78 -33 11
-38 -4 -29 -90 5 -44 5 -83 1 -87 -3 -4 -22 -9 -41 -10 l-34 -3 -17 195 c-9
107 -20 203 -24 213 -6 14 -2 17 27 17 45 0 68 -28 68 -83 0 -66 9 -89 34 -85
19 3 21 8 18 73 -2 39 -5 78 -8 88 -4 12 0 17 17 17 37 0 59 -28 59 -75 0 -41
22 -76 37 -61 4 3 2 38 -3 76 -11 78 -9 79 66 76 32 -1 35 -4 35 -31z m-405
-26 c0 -18 2 -19 15 -9 17 14 34 5 19 -10 -6 -6 -4 -75 4 -185 8 -97 11 -183
8 -191 -7 -17 -72 -19 -82 -2 -4 7 -7 35 -6 62 2 47 1 50 -13 32 -8 -11 -15
-39 -15 -63 0 -124 -93 -186 -206 -138 -41 17 -37 35 7 35 62 0 99 45 99 122
1 24 7 57 14 73 12 28 11 32 -10 50 -21 17 -25 32 -30 110 -8 106 -2 116 80
126 102 12 116 11 116 -12z m-264 -33 c24 -20 28 -32 32 -90 3 -40 0 -72 -6
-78 -7 -7 -5 -18 8 -37 25 -34 32 -167 10 -181 -16 -10 -63 -17 -153 -23 -69
-4 -62 -23 -81 214 -8 96 -16 182 -18 190 -2 10 11 16 47 20 106 13 133 10
161 -15z m-300 -11 c4 -8 12 -15 19 -15 9 0 16 -45 25 -162 11 -143 15 -164
35 -182 13 -13 22 -35 23 -58 3 -43 -8 -48 -39 -17 -19 19 -28 20 -117 13 -97
-6 -132 -20 -132 -51 0 -7 -4 -13 -10 -13 -5 0 -10 7 -10 15 0 8 -6 14 -12 13
-8 -2 -15 13 -18 37 l-5 39 -18 -27 c-9 -15 -24 -27 -32 -27 -9 0 -6 8 10 25
16 15 25 35 24 52 -1 21 -3 23 -6 8 -7 -27 -24 -50 -56 -75 -24 -19 -29 -20
-61 -6 -44 18 -64 49 -68 106 -2 41 0 45 26 55 22 7 30 7 33 -2 3 -7 11 -13
18 -13 9 0 12 -11 8 -39 -3 -24 -1 -41 7 -46 19 -11 24 2 21 57 -2 41 -7 55
-27 70 -29 24 -31 44 -3 58 16 9 20 19 17 49 -2 21 -6 39 -10 40 -22 4 -28 -1
-28 -24 0 -14 5 -25 11 -25 5 0 7 -4 4 -10 -10 -16 -53 -12 -75 7 -22 19 -27
71 -10 103 27 50 122 42 165 -14 32 -43 44 -119 22 -144 -15 -16 -15 -20 3
-47 11 -17 20 -47 20 -67 0 -41 14 -56 35 -38 17 14 20 147 7 277 l-8 72 66 6
c36 4 70 8 75 10 27 9 66 4 71 -10z m-514 -44 c12 -15 20 -65 33 -206 8 -102
13 -190 10 -195 -9 -15 -61 -12 -75 5 -6 8 -9 18 -6 23 5 8 -17 329 -24 367
-4 20 0 25 23 25 12 0 30 -9 39 -19z m-104 -23 c14 -24 22 -61 26 -129 8 -104
4 -114 -44 -121 -24 -3 -25 -6 -25 -73 0 -59 -3 -70 -18 -73 -33 -7 -47 17
-47 78 0 49 -5 63 -30 95 -35 44 -38 60 -10 45 29 -16 32 1 22 106 -5 49 -7
92 -5 97 2 4 28 7 58 7 50 0 55 -2 73 -32z m6249 -493 c-1 -341 -2 -378 -6
-198 -3 122 -9 224 -12 227 -3 4 -12 0 -19 -9 -7 -8 -21 -15 -31 -15 -10 0
-20 -4 -23 -9 -3 -5 -15 -7 -25 -4 -11 3 -36 -3 -56 -13 -41 -19 -90 -21 -111
-3 -8 6 -14 26 -14 45 0 25 7 38 30 54 37 26 87 97 96 136 9 39 68 93 112 102
21 5 38 14 38 22 1 8 3 40 4 70 1 41 4 50 10 35 5 -11 8 -209 7 -440z m755
324 c-3 -21 -1 -30 6 -25 17 10 24 -11 10 -33 -9 -16 -10 -23 -1 -32 20 -20
45 -2 41 31 -2 20 3 34 17 44 26 20 46 20 39 1 -4 -8 -10 -13 -14 -10 -7 4
-25 -90 -21 -109 1 -5 -7 -6 -19 -3 -11 3 -20 1 -20 -4 0 -5 14 -9 31 -9 25 0
29 -3 24 -19 -4 -14 0 -21 15 -26 15 -5 19 -12 15 -25 -9 -30 10 -31 60 -4 34
17 51 22 58 15 6 -6 35 -11 63 -11 65 0 107 -22 195 -101 14 -13 36 -50 48
-82 l21 -58 -21 -81 c-24 -93 -21 -161 12 -248 14 -38 18 -65 14 -90 -15 -82
-69 -155 -115 -155 -88 -1 -246 -33 -275 -56 -6 -5 -31 -11 -55 -15 -25 -4
-54 -13 -65 -20 -11 -8 -24 -14 -30 -14 -6 0 -39 27 -74 61 l-63 60 -71 -7
c-49 -4 -76 -12 -85 -23 -12 -15 -14 -15 -23 2 -8 14 -22 17 -67 17 -31 -1
-73 3 -92 9 -19 6 -61 11 -93 11 -67 0 -107 17 -127 54 -17 34 -26 33 -45 -5
-9 -16 -22 -28 -28 -25 -7 2 -29 10 -50 17 -48 16 -61 39 -54 98 4 38 12 52
47 84 24 20 51 37 62 37 11 0 22 9 25 20 6 23 19 26 26 8 3 -10 12 -8 36 5 17
10 39 16 49 13 27 -9 46 8 34 30 -5 10 -6 25 -2 33 4 9 16 33 26 54 13 26 31
44 55 55 51 22 69 56 63 120 -2 28 -8 61 -13 74 l-8 22 -12 -22 c-17 -32 -29
-27 -33 16 l-3 37 -43 -3 -43 -4 15 31 c22 41 20 56 -9 79 -32 25 -31 28 6 41
30 10 31 13 27 56 -3 25 -3 45 -1 45 3 0 18 -9 34 -21 33 -23 42 -21 59 21 15
36 26 32 34 -16 l7 -36 50 7 51 7 -26 -41 -26 -41 40 -26 c45 -30 44 -34 -8
-49 -37 -11 -37 -11 -34 -60 2 -28 -1 -45 -5 -40 -16 20 -62 45 -68 36 -3 -5
0 -11 5 -13 6 -2 12 -10 14 -18 2 -8 6 -22 10 -31 4 -10 6 -25 4 -35 -4 -25
28 -32 164 -33 108 -1 119 1 142 22 13 12 27 33 31 46 7 23 6 24 -43 19 -28
-3 -58 -12 -67 -21 -23 -24 -35 -21 -35 8 0 22 -4 25 -35 25 -25 0 -35 4 -35
16 0 10 6 14 15 10 8 -3 30 1 49 9 20 8 43 15 53 15 15 0 15 -2 -3 -15 -18
-15 -17 -16 16 -9 43 8 47 11 31 27 -6 6 -33 12 -59 12 -44 0 -47 2 -50 28 -3
21 2 29 20 36 l23 10 -22 0 c-43 2 -23 21 21 21 63 0 69 13 51 100 -8 40 -13
75 -10 78 3 3 13 -2 23 -11 10 -10 24 -17 30 -17 20 0 13 -17 -8 -23 -11 -3
-20 -13 -20 -22 0 -9 4 -13 10 -10 5 3 7 0 5 -7 -4 -9 4 -14 25 -16 33 -3 50
19 32 41 -6 8 -4 26 9 55 21 49 38 49 31 1z m-788 -1038 c10 -11 28 -39 41
-63 19 -35 28 -43 51 -44 16 0 54 -8 84 -17 101 -29 321 -60 445 -61 113 -1
128 1 245 38 69 21 159 51 200 67 85 33 184 40 193 15 11 -28 -34 -160 -64
-191 -27 -28 -39 -63 -54 -157 -5 -36 -49 -110 -72 -124 -11 -6 -39 -15 -63
-19 -60 -10 -63 -13 -41 -37 20 -20 18 -48 -2 -48 -6 0 -19 8 -29 17 -16 14
-24 15 -51 5 -48 -17 -284 -6 -315 14 -18 12 -21 18 -12 24 7 4 -18 10 -56 14
-112 10 -120 12 -149 34 -15 12 -32 19 -37 16 -12 -7 -65 14 -98 38 -16 13
-32 17 -49 13 -21 -5 -23 -4 -12 8 9 12 8 16 -3 20 -8 3 -20 0 -26 -8 -9 -10
-18 -11 -37 -4 -14 5 -33 7 -42 4 -21 -6 -81 69 -81 102 0 22 31 63 49 63 5 0
14 -7 22 -16 33 -40 201 -134 239 -134 10 0 34 -7 53 -15 20 -8 50 -15 67 -15
17 0 41 -6 53 -14 26 -16 72 -25 164 -32 68 -5 100 2 193 42 30 13 74 28 97
34 23 6 48 17 56 25 8 7 40 20 72 29 67 17 72 21 55 41 -16 20 -108 20 -136 1
-12 -8 -45 -18 -75 -22 -30 -4 -60 -11 -67 -17 -9 -7 -16 -7 -24 1 -7 7 -24
12 -38 12 -14 0 -33 9 -43 20 -9 11 -25 20 -34 20 -10 0 -31 7 -46 15 -15 8
-43 17 -63 21 -19 3 -37 10 -40 15 -3 5 -41 9 -84 9 -44 0 -80 4 -82 10 -2 6
-16 13 -32 16 -16 3 -36 9 -44 13 -8 5 -34 6 -57 3 -50 -5 -105 11 -129 37
-16 18 -20 18 -65 4 l-48 -16 -36 37 c-31 31 -37 43 -37 80 0 32 6 50 25 70
29 31 46 33 69 7z m-4474 -31 c0 -5 -10 -29 -22 -52 -33 -62 -30 -153 11 -292
21 -73 31 -130 30 -170 l-1 -61 -13 70 c-7 39 -27 115 -45 170 -46 140 -46
259 1 319 21 26 39 34 39 16z m-289 -478 c-11 -16 -22 -39 -24 -53 -2 -13 -2
-18 0 -11 5 14 33 16 33 2 0 -5 9 -10 20 -10 11 0 20 -6 20 -14 0 -8 11 -17
25 -20 42 -11 28 -21 -31 -23 -64 -3 -86 -16 -82 -47 3 -19 9 -21 66 -20 34 1
62 0 62 -2 0 -2 -13 -10 -29 -18 -19 -10 -31 -12 -38 -5 -8 8 -17 7 -32 -1
-26 -14 -17 -33 11 -24 15 4 19 2 16 -7 -3 -8 -15 -13 -26 -11 -12 2 -22 -2
-22 -7 0 -6 12 -11 28 -11 15 0 34 -5 42 -10 13 -8 13 -10 -2 -10 -10 0 -20
-10 -24 -24 -3 -13 -11 -23 -17 -23 -45 1 -57 -4 -57 -25 0 -21 -5 -23 -55
-24 -31 0 -61 -6 -67 -12 -12 -12 -13 -80 -2 -134 9 -44 32 -34 36 15 3 35 7
43 27 45 13 2 28 -1 34 -7 9 -9 5 -11 -13 -9 -22 3 -25 -2 -28 -29 -3 -28 0
-33 17 -33 16 0 21 7 22 28 1 22 2 23 6 5 3 -17 11 -21 34 -21 27 1 29 3 31
47 l1 46 4 -41 c4 -42 4 -42 41 -39 73 6 145 22 270 58 45 14 82 23 82 20 0
-28 -392 -120 -590 -138 -41 -3 -121 -18 -178 -32 -56 -14 -104 -24 -106 -22
-10 11 -17 89 -7 89 5 0 12 -15 14 -32 2 -18 2 2 0 45 -4 60 -2 77 8 77 11 0
11 3 -1 10 -25 16 -27 12 -24 -42 l3 -53 -9 45 c-5 25 -9 62 -9 83 -1 36 0 37
33 37 18 0 53 -7 77 -16 54 -19 174 -23 191 -6 9 9 6 12 -15 12 -15 0 -61 12
-103 26 -104 35 -192 41 -285 20 -90 -20 -197 -69 -205 -93 -22 -68 -39 -92
-92 -127 -35 -22 -67 -35 -82 -34 -28 3 -30 21 -3 26 37 6 74 25 70 36 -2 6
-30 11 -68 12 -65 0 -170 19 -201 35 -22 12 -45 2 -51 -23 -6 -20 -10 -20 -89
-13 -45 4 -90 11 -100 16 -9 5 -26 9 -38 9 -11 0 -39 9 -60 20 -39 20 -105 28
-269 34 -41 1 -66 6 -69 14 -2 7 -16 19 -30 26 -23 12 -29 12 -40 0 -7 -8 -10
-19 -7 -24 3 -6 1 -10 -4 -10 -6 0 -11 4 -11 9 0 5 -11 12 -24 15 -24 6 -60
61 -51 76 3 5 -5 10 -17 12 -14 2 -25 14 -33 36 -6 19 -20 39 -30 44 -11 6
-21 12 -23 13 -1 1 1 10 4 19 5 14 9 15 16 4 7 -10 11 -10 15 0 8 21 125 16
150 -7 37 -35 105 -64 188 -81 22 -5 60 -16 85 -25 34 -13 92 -17 260 -21 296
-5 340 -5 375 6 17 5 44 11 60 14 17 2 49 7 72 11 37 7 44 4 67 -20 14 -15 26
-38 26 -51 l0 -23 53 27 c28 15 66 32 82 39 l30 11 -28 1 c-15 1 -36 -5 -47
-11 -16 -11 -22 -9 -35 7 -16 20 -16 20 -12 -2 6 -28 -8 -30 -22 -4 -13 23 10
47 34 37 8 -3 15 0 15 6 0 6 3 8 6 5 4 -3 16 0 28 8 11 8 35 15 53 15 17 0 35
5 38 10 4 6 12 7 23 1 10 -6 23 -5 34 3 16 9 21 8 29 -6 12 -22 29 -23 29 -3
0 8 4 15 9 15 5 0 11 -7 15 -15 7 -20 26 -19 26 1 0 13 6 15 28 10 15 -4 45
-9 67 -12 64 -9 67 -11 55 -34 -11 -21 -49 -27 -66 -10 -6 6 -24 10 -40 10
-16 0 -50 0 -76 0 -25 0 -49 -4 -53 -10 -4 -6 16 -10 55 -10 62 0 162 -21 210
-44 14 -7 35 -10 48 -8 19 3 22 9 22 53 0 48 -5 54 -38 50 -7 -1 -42 10 -78
24 -130 52 -308 42 -441 -26 -66 -33 -67 -33 -57 -18 12 19 126 66 192 79 80
16 232 8 292 -15 25 -10 65 -20 90 -22 25 -3 48 -10 51 -16 9 -13 41 48 48 92
7 42 31 54 31 16 0 -24 3 -26 38 -23 36 3 37 4 40 48 4 79 12 109 38 140 32
38 42 39 15 2z m-597 -419 c3 -10 8 -67 12 -128 l6 -110 -236 -1 c-131 -1
-233 3 -229 7 4 4 37 9 73 11 59 3 65 5 71 28 7 24 7 24 8 3 1 -14 7 -23 17
-23 12 0 15 7 12 25 -3 14 -1 25 3 25 5 0 9 -12 9 -26 0 -16 5 -24 12 -22 8 3
12 23 11 54 l-2 49 9 -48 c16 -91 35 -77 25 17 -5 48 -11 66 -22 66 -24 0 -4
18 28 25 17 4 56 20 86 36 63 33 99 37 107 12z m670 -368 c-9 -22 -100 -61
-186 -79 -62 -13 -146 -16 -426 -16 -208 0 -372 -4 -408 -11 -70 -13 -148 -52
-162 -83 -10 -20 -11 -20 -11 5 -1 14 9 34 22 46 67 62 157 74 557 72 188 0
356 4 398 10 75 11 178 43 196 61 15 15 26 12 20 -5z m289 -135 c9 -11 19 -31
23 -45 5 -21 9 -23 26 -14 11 6 22 8 25 5 12 -12 -127 -66 -254 -100 -126 -33
-133 -33 -133 -15 0 12 7 19 20 19 11 0 20 5 20 10 0 6 12 10 26 10 16 0 24 5
21 13 -4 13 -27 13 -64 2 -20 -6 -23 -4 -23 16 0 13 4 30 9 38 8 12 12 12 25
2 10 -8 22 -10 33 -5 10 4 29 9 43 10 14 0 34 5 44 9 15 7 18 5 14 -7 -9 -22
24 -16 51 9 13 12 30 19 42 16 15 -4 19 0 19 21 0 31 10 33 33 6z"/>
<path d="M8280 2210 c0 -5 4 -10 9 -10 5 0 11 -12 14 -27 9 -50 -62 -95 -146
-92 -52 2 -71 -8 -61 -34 18 -49 135 -78 314 -78 86 0 139 5 168 15 32 12 66
14 135 9 l92 -6 40 40 c22 22 50 45 63 52 31 17 29 51 -3 51 -15 0 -25 -6 -25
-14 0 -14 -65 -26 -155 -28 -22 0 -46 -5 -52 -10 -7 -6 -51 -13 -98 -15 l-84
-6 -41 37 c-22 20 -48 36 -58 36 -21 0 -40 20 -62 63 -13 26 -50 38 -50 17z"/>
<path d="M8422 8506 c-35 -37 -53 -65 -58 -92 -4 -21 -19 -75 -35 -120 -26
-76 -27 -90 -23 -195 3 -63 5 -118 5 -124 1 -5 -2 -31 -6 -57 -7 -45 -6 -47
19 -54 14 -3 39 -3 54 1 15 3 47 9 72 13 55 9 59 21 30 108 -28 82 -49 265
-38 319 5 21 6 55 3 75 -5 29 -2 40 16 55 33 30 52 81 39 105 -6 11 -14 20
-19 20 -4 0 -31 -24 -59 -54z"/>
<path d="M9418 8452 c-7 -10 -31 -22 -53 -27 -31 -8 -41 -15 -43 -34 -2 -13 1
-28 7 -34 6 -6 11 -39 11 -73 l0 -62 68 5 c44 4 71 11 80 21 7 10 12 48 12
103 0 79 -2 89 -22 103 -29 21 -44 20 -60 -2z"/>
<path d="M7330 8161 c-22 -6 -25 -13 -23 -47 2 -49 59 -171 86 -186 11 -5 67
-13 124 -16 93 -4 109 -8 147 -34 66 -43 76 -34 76 71 0 54 -5 92 -12 99 -20
20 -77 14 -192 -20 l-109 -31 -19 22 c-13 17 -18 40 -18 81 0 44 -4 59 -16 64
-9 3 -16 6 -17 5 -1 -1 -13 -4 -27 -8z"/>
<path d="M0 8013 l0 -128 137 3 c87 2 181 -2 253 -12 63 -8 160 -18 215 -21
55 -3 114 -10 130 -15 29 -8 547 -25 690 -22 39 1 115 -5 170 -13 55 -8 141
-16 190 -19 50 -4 128 -9 175 -12 47 -3 171 -8 275 -9 207 -4 326 -10 365 -19
14 -4 86 -11 160 -16 74 -6 158 -12 185 -14 28 -3 86 -7 130 -11 44 -3 96 -10
115 -16 27 -7 65 -4 165 14 134 25 196 47 380 133 28 13 68 28 89 35 53 16
108 49 103 63 -2 6 -17 12 -33 13 -54 3 -418 23 -514 28 -515 25 -992 46
-1115 49 -219 6 -577 24 -605 30 -14 3 -140 10 -280 16 -140 6 -362 17 -492
25 -130 8 -364 19 -520 25 -156 5 -302 13 -325 16 l-43 5 0 -128z"/>
<path d="M5863 7288 c-13 -6 -23 -15 -23 -19 0 -5 -20 -31 -44 -58 -57 -64
-116 -153 -116 -176 0 -9 -12 -31 -26 -48 -22 -26 -25 -38 -21 -75 6 -53 41
-97 58 -72 5 8 7 29 3 45 -17 78 1 112 31 56 19 -37 38 -41 29 -7 -12 47 3 66
51 66 24 0 47 -4 50 -10 3 -5 17 -10 30 -10 18 0 26 -7 31 -25 3 -14 14 -30
24 -35 15 -8 20 -4 29 20 7 21 15 28 25 24 9 -3 16 -10 16 -14 0 -12 29 -40
42 -40 6 0 8 11 6 25 -4 21 -1 25 18 25 14 0 24 -6 24 -15 0 -8 9 -19 19 -24
15 -9 20 -7 24 9 8 31 38 37 55 12 14 -22 42 -30 42 -13 0 16 -26 37 -62 50
-18 7 -46 19 -61 27 -16 8 -50 14 -76 14 -35 0 -53 5 -66 20 -10 12 -37 29
-59 40 -53 24 -82 48 -71 57 4 5 10 2 12 -4 8 -22 60 -14 91 12 37 31 38 75 4
123 -25 34 -49 39 -89 20z"/>
<path d="M10190 6468 c-1 -25 -27 -238 -40 -331 -6 -37 -10 -98 -10 -135 0
-37 -5 -101 -11 -142 -19 -147 -32 -597 -18 -606 4 -2 26 -2 48 2 40 6 40 6
20 27 -24 26 -24 34 0 42 10 3 21 14 24 25 6 23 -17 45 -39 36 -11 -4 -15 -1
-12 12 2 11 14 18 36 20 20 2 32 9 32 18 0 8 5 14 11 14 6 0 9 -9 6 -20 -3
-11 -1 -22 3 -25 5 -3 8 23 7 58 -2 66 16 108 36 88 16 -16 37 0 37 28 0 15 5
32 12 39 18 18 4 24 -27 12 -29 -11 -40 -2 -72 58 -19 35 -27 155 -14 195 9
26 8 41 -3 68 -12 28 -13 56 -4 154 5 66 7 170 3 230 -4 61 -8 118 -8 128 -1
19 -17 24 -17 5z"/>
<path d="M10491 5620 c-13 -11 -19 -20 -15 -20 5 0 10 -23 11 -50 1 -28 -2
-48 -6 -46 -4 3 -13 1 -21 -4 -12 -8 -11 -12 6 -29 17 -15 22 -36 28 -112 8
-100 13 -114 52 -123 40 -10 61 8 69 60 3 25 8 56 11 67 13 63 24 158 24 208
0 50 -3 57 -22 63 -48 12 -113 6 -137 -14z"/>
<path d="M10610 4340 c-21 -21 -27 -74 -10 -85 16 -10 11 -41 -10 -60 -14 -13
-28 -16 -55 -11 -38 7 -43 -1 -23 -34 7 -10 9 -22 5 -26 -10 -11 -218 -4 -239
7 -9 5 -35 7 -57 3 -49 -8 -111 11 -111 35 0 10 -18 26 -45 39 l-46 22 2 50
c2 27 0 53 -4 56 -12 13 -37 -25 -37 -57 0 -18 -5 -61 -11 -96 -10 -55 -9 -66
5 -82 9 -10 22 -18 29 -19 6 0 50 -5 97 -11 47 -5 171 -13 275 -16 105 -4 209
-11 233 -15 l42 -7 0 163 c0 103 -4 164 -10 164 -5 0 -19 -9 -30 -20z"/>
<path d="M10640 3526 c0 -18 -5 -58 -11 -87 -6 -30 -12 -87 -13 -128 -2 -44
-8 -76 -15 -81 -13 -7 -80 -13 -298 -26 -80 -5 -113 -10 -113 -19 0 -7 11 -16
25 -19 14 -4 25 -10 25 -14 0 -4 9 -18 19 -32 19 -24 20 -24 40 -6 12 11 21
14 21 8 0 -6 15 -26 32 -44 18 -18 32 -37 30 -41 -1 -4 11 -15 28 -25 16 -9
30 -24 30 -33 0 -20 21 -30 49 -22 13 3 21 1 21 -6 0 -7 12 -11 28 -10 58 4
80 -1 85 -21 3 -11 10 -20 16 -20 8 0 11 98 11 330 0 182 -2 330 -5 330 -3 0
-5 -15 -5 -34z"/>
<path d="M740 2291 c0 -14 7 -25 19 -28 11 -3 22 -12 25 -20 3 -8 10 -12 15
-9 5 3 24 -17 41 -44 40 -62 72 -80 145 -80 43 0 64 -6 93 -25 20 -14 46 -25
57 -25 11 -1 38 -9 60 -20 22 -11 50 -19 62 -20 12 0 32 -4 45 -9 38 -14 132
-23 146 -13 10 7 10 14 -2 37 -9 16 -13 40 -10 52 6 21 4 22 -25 17 -26 -6
-31 -4 -31 14 0 13 -9 22 -25 26 -14 4 -25 10 -25 15 0 5 -7 17 -16 26 -18 18
-44 13 -85 -17 -22 -16 -32 -18 -65 -10 -21 5 -56 10 -77 10 -25 0 -46 7 -61
21 -12 12 -34 21 -48 21 -16 0 -34 10 -46 25 -16 20 -31 26 -71 29 -28 2 -57
9 -64 15 -8 6 -17 7 -21 3 -4 -4 -14 2 -22 12 -14 19 -14 19 -14 -3z"/>
</g>
</svg>
